<?xml version="1.0" encoding="UTF-8" standalone="no"?>
<!DOCTYPE svg PUBLIC "-//W3C//DTD SVG 1.1//EN"
 "http://www.w3.org/Graphics/SVG/1.1/DTD/svg11.dtd">
<!-- Generated by graphviz version 2.38.0 (20140413.2041)
 -->
<!-- Title: G Pages: 1 -->
<svg width="186pt" height="410pt"
 viewBox="0.00 0.00 186.00 410.00" xmlns="http://www.w3.org/2000/svg" xmlns:xlink="http://www.w3.org/1999/xlink">
<g id="graph0" class="graph" transform="scale(1 1) rotate(0) translate(4 406)">
<title>G</title>
<polygon fill="white" stroke="none" points="-4,4 -4,-406 182,-406 182,4 -4,4"/>
<!-- 140014212813264 -->
<g id="node1" class="node"><title>140014212813264</title>
<polygon fill="none" stroke="black" points="50.5,-365.5 50.5,-401.5 127.5,-401.5 127.5,-365.5 50.5,-365.5"/>
<text text-anchor="middle" x="89" y="-379.8" font-family="Times,serif" font-size="14.00">InputLayer</text>
</g>
<!-- 140013569210464 -->
<g id="node2" class="node"><title>140013569210464</title>
<polygon fill="none" stroke="black" points="-1.42109e-14,-292.5 -1.42109e-14,-328.5 178,-328.5 178,-292.5 -1.42109e-14,-292.5"/>
<text text-anchor="middle" x="89" y="-306.8" font-family="Times,serif" font-size="14.00">Bidirectional(CuDNNLSTM)</text>
</g>
<!-- 140014212813264&#45;&gt;140013569210464 -->
<g id="edge1" class="edge"><title>140014212813264&#45;&gt;140013569210464</title>
<path fill="none" stroke="black" d="M89,-365.313C89,-357.289 89,-347.547 89,-338.569"/>
<polygon fill="black" stroke="black" points="92.5001,-338.529 89,-328.529 85.5001,-338.529 92.5001,-338.529"/>
</g>
<!-- 140013569064240 -->
<g id="node3" class="node"><title>140013569064240</title>
<polygon fill="none" stroke="black" points="58,-219.5 58,-255.5 120,-255.5 120,-219.5 58,-219.5"/>
<text text-anchor="middle" x="89" y="-233.8" font-family="Times,serif" font-size="14.00">Dropout</text>
</g>
<!-- 140013569210464&#45;&gt;140013569064240 -->
<g id="edge2" class="edge"><title>140013569210464&#45;&gt;140013569064240</title>
<path fill="none" stroke="black" d="M89,-292.313C89,-284.289 89,-274.547 89,-265.569"/>
<polygon fill="black" stroke="black" points="92.5001,-265.529 89,-255.529 85.5001,-265.529 92.5001,-265.529"/>
</g>
<!-- 140013569211304 -->
<g id="node4" class="node"><title>140013569211304</title>
<polygon fill="none" stroke="black" points="62,-146.5 62,-182.5 116,-182.5 116,-146.5 62,-146.5"/>
<text text-anchor="middle" x="89" y="-160.8" font-family="Times,serif" font-size="14.00">Dense</text>
</g>
<!-- 140013569064240&#45;&gt;140013569211304 -->
<g id="edge3" class="edge"><title>140013569064240&#45;&gt;140013569211304</title>
<path fill="none" stroke="black" d="M89,-219.313C89,-211.289 89,-201.547 89,-192.569"/>
<polygon fill="black" stroke="black" points="92.5001,-192.529 89,-182.529 85.5001,-192.529 92.5001,-192.529"/>
</g>
<!-- 140013566407512 -->
<g id="node5" class="node"><title>140013566407512</title>
<polygon fill="none" stroke="black" points="58,-73.5 58,-109.5 120,-109.5 120,-73.5 58,-73.5"/>
<text text-anchor="middle" x="89" y="-87.8" font-family="Times,serif" font-size="14.00">Dropout</text>
</g>
<!-- 140013569211304&#45;&gt;140013566407512 -->
<g id="edge4" class="edge"><title>140013569211304&#45;&gt;140013566407512</title>
<path fill="none" stroke="black" d="M89,-146.313C89,-138.289 89,-128.547 89,-119.569"/>
<polygon fill="black" stroke="black" points="92.5001,-119.529 89,-109.529 85.5001,-119.529 92.5001,-119.529"/>
</g>
<!-- 140013566409360 -->
<g id="node6" class="node"><title>140013566409360</title>
<polygon fill="none" stroke="black" points="62,-0.5 62,-36.5 116,-36.5 116,-0.5 62,-0.5"/>
<text text-anchor="middle" x="89" y="-14.8" font-family="Times,serif" font-size="14.00">Dense</text>
</g>
<!-- 140013566407512&#45;&gt;140013566409360 -->
<g id="edge5" class="edge"><title>140013566407512&#45;&gt;140013566409360</title>
<path fill="none" stroke="black" d="M89,-73.3129C89,-65.2895 89,-55.5475 89,-46.5691"/>
<polygon fill="black" stroke="black" points="92.5001,-46.5288 89,-36.5288 85.5001,-46.5289 92.5001,-46.5288"/>
</g>
</g>
</svg>
