<?xml version="1.0" encoding="UTF-8" standalone="no"?>
<!DOCTYPE svg PUBLIC "-//W3C//DTD SVG 1.1//EN"
 "http://www.w3.org/Graphics/SVG/1.1/DTD/svg11.dtd">
<!-- Generated by graphviz version 2.38.0 (20140413.2041)
 -->
<!-- Title: G Pages: 1 -->
<svg width="270pt" height="337pt"
 viewBox="0.00 0.00 269.50 337.00" xmlns="http://www.w3.org/2000/svg" xmlns:xlink="http://www.w3.org/1999/xlink">
<g id="graph0" class="graph" transform="scale(1 1) rotate(0) translate(4 333)">
<title>G</title>
<polygon fill="white" stroke="none" points="-4,4 -4,-333 265.5,-333 265.5,4 -4,4"/>
<!-- 139634498076288 -->
<g id="node1" class="node"><title>139634498076288</title>
<polygon fill="none" stroke="black" points="50.5,-292.5 50.5,-328.5 127.5,-328.5 127.5,-292.5 50.5,-292.5"/>
<text text-anchor="middle" x="89" y="-306.8" font-family="Times,serif" font-size="14.00">InputLayer</text>
</g>
<!-- 139631091744216 -->
<g id="node3" class="node"><title>139631091744216</title>
<polygon fill="none" stroke="black" points="-1.42109e-14,-219.5 -1.42109e-14,-255.5 178,-255.5 178,-219.5 -1.42109e-14,-219.5"/>
<text text-anchor="middle" x="89" y="-233.8" font-family="Times,serif" font-size="14.00">Bidirectional(CuDNNLSTM)</text>
</g>
<!-- 139634498076288&#45;&gt;139631091744216 -->
<g id="edge1" class="edge"><title>139634498076288&#45;&gt;139631091744216</title>
<path fill="none" stroke="black" d="M89,-292.313C89,-284.289 89,-274.547 89,-265.569"/>
<polygon fill="black" stroke="black" points="92.5001,-265.529 89,-255.529 85.5001,-265.529 92.5001,-265.529"/>
</g>
<!-- 139631092124864 -->
<g id="node2" class="node"><title>139631092124864</title>
<polygon fill="none" stroke="black" points="184.5,-292.5 184.5,-328.5 261.5,-328.5 261.5,-292.5 184.5,-292.5"/>
<text text-anchor="middle" x="223" y="-306.8" font-family="Times,serif" font-size="14.00">InputLayer</text>
</g>
<!-- 139637296736464 -->
<g id="node4" class="node"><title>139637296736464</title>
<polygon fill="none" stroke="black" points="196,-219.5 196,-255.5 250,-255.5 250,-219.5 196,-219.5"/>
<text text-anchor="middle" x="223" y="-233.8" font-family="Times,serif" font-size="14.00">Dense</text>
</g>
<!-- 139631092124864&#45;&gt;139637296736464 -->
<g id="edge2" class="edge"><title>139631092124864&#45;&gt;139637296736464</title>
<path fill="none" stroke="black" d="M223,-292.313C223,-284.289 223,-274.547 223,-265.569"/>
<polygon fill="black" stroke="black" points="226.5,-265.529 223,-255.529 219.5,-265.529 226.5,-265.529"/>
</g>
<!-- 139631091916872 -->
<g id="node5" class="node"><title>139631091916872</title>
<polygon fill="none" stroke="black" points="93,-146.5 93,-182.5 147,-182.5 147,-146.5 93,-146.5"/>
<text text-anchor="middle" x="120" y="-160.8" font-family="Times,serif" font-size="14.00">Dense</text>
</g>
<!-- 139631091744216&#45;&gt;139631091916872 -->
<g id="edge3" class="edge"><title>139631091744216&#45;&gt;139631091916872</title>
<path fill="none" stroke="black" d="M96.5042,-219.313C100.084,-211.115 104.446,-201.123 108.436,-191.985"/>
<polygon fill="black" stroke="black" points="111.771,-193.094 112.565,-182.529 105.356,-190.293 111.771,-193.094"/>
</g>
<!-- 139631089591912 -->
<g id="node6" class="node"><title>139631089591912</title>
<polygon fill="none" stroke="black" points="180,-146.5 180,-182.5 234,-182.5 234,-146.5 180,-146.5"/>
<text text-anchor="middle" x="207" y="-160.8" font-family="Times,serif" font-size="14.00">Dense</text>
</g>
<!-- 139637296736464&#45;&gt;139631089591912 -->
<g id="edge4" class="edge"><title>139637296736464&#45;&gt;139631089591912</title>
<path fill="none" stroke="black" d="M219.127,-219.313C217.319,-211.289 215.123,-201.547 213.1,-192.569"/>
<polygon fill="black" stroke="black" points="216.45,-191.515 210.837,-182.529 209.622,-193.054 216.45,-191.515"/>
</g>
<!-- 139631089044056 -->
<g id="node7" class="node"><title>139631089044056</title>
<polygon fill="none" stroke="black" points="121.5,-73.5 121.5,-109.5 204.5,-109.5 204.5,-73.5 121.5,-73.5"/>
<text text-anchor="middle" x="163" y="-87.8" font-family="Times,serif" font-size="14.00">Concatenate</text>
</g>
<!-- 139631091916872&#45;&gt;139631089044056 -->
<g id="edge5" class="edge"><title>139631091916872&#45;&gt;139631089044056</title>
<path fill="none" stroke="black" d="M130.409,-146.313C135.532,-137.853 141.813,-127.484 147.488,-118.112"/>
<polygon fill="black" stroke="black" points="150.5,-119.896 152.687,-109.529 144.513,-116.269 150.5,-119.896"/>
</g>
<!-- 139631089591912&#45;&gt;139631089044056 -->
<g id="edge6" class="edge"><title>139631089591912&#45;&gt;139631089044056</title>
<path fill="none" stroke="black" d="M196.349,-146.313C191.106,-137.853 184.68,-127.484 178.873,-118.112"/>
<polygon fill="black" stroke="black" points="181.796,-116.185 173.553,-109.529 175.846,-119.873 181.796,-116.185"/>
</g>
<!-- 139631089045344 -->
<g id="node8" class="node"><title>139631089045344</title>
<polygon fill="none" stroke="black" points="136,-0.5 136,-36.5 190,-36.5 190,-0.5 136,-0.5"/>
<text text-anchor="middle" x="163" y="-14.8" font-family="Times,serif" font-size="14.00">Dense</text>
</g>
<!-- 139631089044056&#45;&gt;139631089045344 -->
<g id="edge7" class="edge"><title>139631089044056&#45;&gt;139631089045344</title>
<path fill="none" stroke="black" d="M163,-73.3129C163,-65.2895 163,-55.5475 163,-46.5691"/>
<polygon fill="black" stroke="black" points="166.5,-46.5288 163,-36.5288 159.5,-46.5289 166.5,-46.5288"/>
</g>
</g>
</svg>
