<?xml version="1.0" encoding="UTF-8" standalone="no"?>
<!DOCTYPE svg PUBLIC "-//W3C//DTD SVG 1.1//EN"
 "http://www.w3.org/Graphics/SVG/1.1/DTD/svg11.dtd">
<!-- Generated by graphviz version 2.38.0 (20140413.2041)
 -->
<!-- Title: G Pages: 1 -->
<svg width="466pt" height="556pt"
 viewBox="0.00 0.00 465.50 556.00" xmlns="http://www.w3.org/2000/svg" xmlns:xlink="http://www.w3.org/1999/xlink">
<g id="graph0" class="graph" transform="scale(1 1) rotate(0) translate(4 552)">
<title>G</title>
<polygon fill="white" stroke="none" points="-4,4 -4,-552 461.5,-552 461.5,4 -4,4"/>
<!-- 140672164060744 -->
<g id="node1" class="node"><title>140672164060744</title>
<polygon fill="none" stroke="black" points="50.5,-511.5 50.5,-547.5 127.5,-547.5 127.5,-511.5 50.5,-511.5"/>
<text text-anchor="middle" x="89" y="-525.8" font-family="Times,serif" font-size="14.00">InputLayer</text>
</g>
<!-- 140672164060912 -->
<g id="node2" class="node"><title>140672164060912</title>
<polygon fill="none" stroke="black" points="49,-438.5 49,-474.5 129,-474.5 129,-438.5 49,-438.5"/>
<text text-anchor="middle" x="89" y="-452.8" font-family="Times,serif" font-size="14.00">Embedding</text>
</g>
<!-- 140672164060744&#45;&gt;140672164060912 -->
<g id="edge1" class="edge"><title>140672164060744&#45;&gt;140672164060912</title>
<path fill="none" stroke="black" d="M89,-511.313C89,-503.289 89,-493.547 89,-484.569"/>
<polygon fill="black" stroke="black" points="92.5001,-484.529 89,-474.529 85.5001,-484.529 92.5001,-484.529"/>
</g>
<!-- 140672164060800 -->
<g id="node3" class="node"><title>140672164060800</title>
<polygon fill="none" stroke="black" points="58,-365.5 58,-401.5 120,-401.5 120,-365.5 58,-365.5"/>
<text text-anchor="middle" x="89" y="-379.8" font-family="Times,serif" font-size="14.00">Conv1D</text>
</g>
<!-- 140672164060912&#45;&gt;140672164060800 -->
<g id="edge2" class="edge"><title>140672164060912&#45;&gt;140672164060800</title>
<path fill="none" stroke="black" d="M89,-438.313C89,-430.289 89,-420.547 89,-411.569"/>
<polygon fill="black" stroke="black" points="92.5001,-411.529 89,-401.529 85.5001,-411.529 92.5001,-411.529"/>
</g>
<!-- 140672163654960 -->
<g id="node4" class="node"><title>140672163654960</title>
<polygon fill="none" stroke="black" points="38.5,-292.5 38.5,-328.5 139.5,-328.5 139.5,-292.5 38.5,-292.5"/>
<text text-anchor="middle" x="89" y="-306.8" font-family="Times,serif" font-size="14.00">MaxPooling1D</text>
</g>
<!-- 140672164060800&#45;&gt;140672163654960 -->
<g id="edge3" class="edge"><title>140672164060800&#45;&gt;140672163654960</title>
<path fill="none" stroke="black" d="M89,-365.313C89,-357.289 89,-347.547 89,-338.569"/>
<polygon fill="black" stroke="black" points="92.5001,-338.529 89,-328.529 85.5001,-338.529 92.5001,-338.529"/>
</g>
<!-- 140672163438320 -->
<g id="node7" class="node"><title>140672163438320</title>
<polygon fill="none" stroke="black" points="0,-219.5 0,-255.5 178,-255.5 178,-219.5 0,-219.5"/>
<text text-anchor="middle" x="89" y="-233.8" font-family="Times,serif" font-size="14.00">Bidirectional(CuDNNLSTM)</text>
</g>
<!-- 140672163654960&#45;&gt;140672163438320 -->
<g id="edge4" class="edge"><title>140672163654960&#45;&gt;140672163438320</title>
<path fill="none" stroke="black" d="M89,-292.313C89,-284.289 89,-274.547 89,-265.569"/>
<polygon fill="black" stroke="black" points="92.5001,-265.529 89,-255.529 85.5001,-265.529 92.5001,-265.529"/>
</g>
<!-- 140672164060856 -->
<g id="node5" class="node"><title>140672164060856</title>
<polygon fill="none" stroke="black" points="246.5,-292.5 246.5,-328.5 323.5,-328.5 323.5,-292.5 246.5,-292.5"/>
<text text-anchor="middle" x="285" y="-306.8" font-family="Times,serif" font-size="14.00">InputLayer</text>
</g>
<!-- 140671349177704 -->
<g id="node8" class="node"><title>140671349177704</title>
<polygon fill="none" stroke="black" points="196,-219.5 196,-255.5 374,-255.5 374,-219.5 196,-219.5"/>
<text text-anchor="middle" x="285" y="-233.8" font-family="Times,serif" font-size="14.00">Bidirectional(CuDNNLSTM)</text>
</g>
<!-- 140672164060856&#45;&gt;140671349177704 -->
<g id="edge5" class="edge"><title>140672164060856&#45;&gt;140671349177704</title>
<path fill="none" stroke="black" d="M285,-292.313C285,-284.289 285,-274.547 285,-265.569"/>
<polygon fill="black" stroke="black" points="288.5,-265.529 285,-255.529 281.5,-265.529 288.5,-265.529"/>
</g>
<!-- 140671349546904 -->
<g id="node6" class="node"><title>140671349546904</title>
<polygon fill="none" stroke="black" points="380.5,-292.5 380.5,-328.5 457.5,-328.5 457.5,-292.5 380.5,-292.5"/>
<text text-anchor="middle" x="419" y="-306.8" font-family="Times,serif" font-size="14.00">InputLayer</text>
</g>
<!-- 140671346646768 -->
<g id="node9" class="node"><title>140671346646768</title>
<polygon fill="none" stroke="black" points="392,-219.5 392,-255.5 446,-255.5 446,-219.5 392,-219.5"/>
<text text-anchor="middle" x="419" y="-233.8" font-family="Times,serif" font-size="14.00">Dense</text>
</g>
<!-- 140671349546904&#45;&gt;140671346646768 -->
<g id="edge6" class="edge"><title>140671349546904&#45;&gt;140671346646768</title>
<path fill="none" stroke="black" d="M419,-292.313C419,-284.289 419,-274.547 419,-265.569"/>
<polygon fill="black" stroke="black" points="422.5,-265.529 419,-255.529 415.5,-265.529 422.5,-265.529"/>
</g>
<!-- 140672163075576 -->
<g id="node10" class="node"><title>140672163075576</title>
<polygon fill="none" stroke="black" points="124,-146.5 124,-182.5 178,-182.5 178,-146.5 124,-146.5"/>
<text text-anchor="middle" x="151" y="-160.8" font-family="Times,serif" font-size="14.00">Dense</text>
</g>
<!-- 140672163438320&#45;&gt;140672163075576 -->
<g id="edge7" class="edge"><title>140672163438320&#45;&gt;140672163075576</title>
<path fill="none" stroke="black" d="M104.008,-219.313C111.624,-210.592 121.013,-199.84 129.391,-190.246"/>
<polygon fill="black" stroke="black" points="132.189,-192.363 136.13,-182.529 126.916,-187.759 132.189,-192.363"/>
</g>
<!-- 140671349178320 -->
<g id="node11" class="node"><title>140671349178320</title>
<polygon fill="none" stroke="black" points="258,-146.5 258,-182.5 312,-182.5 312,-146.5 258,-146.5"/>
<text text-anchor="middle" x="285" y="-160.8" font-family="Times,serif" font-size="14.00">Dense</text>
</g>
<!-- 140671349177704&#45;&gt;140671349178320 -->
<g id="edge8" class="edge"><title>140671349177704&#45;&gt;140671349178320</title>
<path fill="none" stroke="black" d="M285,-219.313C285,-211.289 285,-201.547 285,-192.569"/>
<polygon fill="black" stroke="black" points="288.5,-192.529 285,-182.529 281.5,-192.529 288.5,-192.529"/>
</g>
<!-- 140671346645928 -->
<g id="node12" class="node"><title>140671346645928</title>
<polygon fill="none" stroke="black" points="361,-146.5 361,-182.5 415,-182.5 415,-146.5 361,-146.5"/>
<text text-anchor="middle" x="388" y="-160.8" font-family="Times,serif" font-size="14.00">Dense</text>
</g>
<!-- 140671346646768&#45;&gt;140671346645928 -->
<g id="edge9" class="edge"><title>140671346646768&#45;&gt;140671346645928</title>
<path fill="none" stroke="black" d="M411.496,-219.313C407.916,-211.115 403.554,-201.123 399.564,-191.985"/>
<polygon fill="black" stroke="black" points="402.644,-190.293 395.435,-182.529 396.229,-193.094 402.644,-190.293"/>
</g>
<!-- 140671345965936 -->
<g id="node13" class="node"><title>140671345965936</title>
<polygon fill="none" stroke="black" points="243.5,-73.5 243.5,-109.5 326.5,-109.5 326.5,-73.5 243.5,-73.5"/>
<text text-anchor="middle" x="285" y="-87.8" font-family="Times,serif" font-size="14.00">Concatenate</text>
</g>
<!-- 140672163075576&#45;&gt;140671345965936 -->
<g id="edge10" class="edge"><title>140672163075576&#45;&gt;140671345965936</title>
<path fill="none" stroke="black" d="M178.117,-149.132C196.987,-139.134 222.494,-125.619 243.857,-114.3"/>
<polygon fill="black" stroke="black" points="245.53,-117.374 252.728,-109.599 242.253,-111.189 245.53,-117.374"/>
</g>
<!-- 140671349178320&#45;&gt;140671345965936 -->
<g id="edge11" class="edge"><title>140671349178320&#45;&gt;140671345965936</title>
<path fill="none" stroke="black" d="M285,-146.313C285,-138.289 285,-128.547 285,-119.569"/>
<polygon fill="black" stroke="black" points="288.5,-119.529 285,-109.529 281.5,-119.529 288.5,-119.529"/>
</g>
<!-- 140671346645928&#45;&gt;140671345965936 -->
<g id="edge12" class="edge"><title>140671346645928&#45;&gt;140671345965936</title>
<path fill="none" stroke="black" d="M363.329,-146.494C349.797,-137.166 332.836,-125.474 318.16,-115.358"/>
<polygon fill="black" stroke="black" points="320.047,-112.407 309.827,-109.614 316.074,-118.171 320.047,-112.407"/>
</g>
<!-- 140671345966776 -->
<g id="node14" class="node"><title>140671345966776</title>
<polygon fill="none" stroke="black" points="258,-0.5 258,-36.5 312,-36.5 312,-0.5 258,-0.5"/>
<text text-anchor="middle" x="285" y="-14.8" font-family="Times,serif" font-size="14.00">Dense</text>
</g>
<!-- 140671345965936&#45;&gt;140671345966776 -->
<g id="edge13" class="edge"><title>140671345965936&#45;&gt;140671345966776</title>
<path fill="none" stroke="black" d="M285,-73.3129C285,-65.2895 285,-55.5475 285,-46.5691"/>
<polygon fill="black" stroke="black" points="288.5,-46.5288 285,-36.5288 281.5,-46.5289 288.5,-46.5288"/>
</g>
</g>
</svg>
